:SAMPLES-PER-SECOND 30
:FULLY-SPECIFIED
:DEGREES
367
root  -10.9217 33.0505 24.8773 -167.365 -3.54456 176.824
RightUpLeg  -12.8812 -10.3375 -6.63882
RightLeg  49.0801 -7.12984 -7.21405
RightFoot  8.42925 0.132702 -1.21588
RightToes  -66.4197 -0.455938 -0.41133
Spine  -0.507699 1.33718 -1.15353
Spine1  -1.05268 2.97613 -1.65123
HEad  -70.4848 -0.243476 5.46822
LeftShoulder1  -1.94126e-019 -3.10601e-018 -2.51263e-017
LeftArm  -21.79 29.116 -82.9651
LeftForeArm  33.9118 -6.69055 -1.15929
LeftHand  -0.511495 -1.44929 8.84646
RightShoulder  -4.96962e-017 0 -2.36833e-017
RightArm  -20.3167 -16.8276 76.3255
RightForeArm  49.3572 26.0038 3.01583
RightHand  -0.368854 -1.05258 -9.80701
LeftUpLeg  -29.505 0.456477 -6.43891
LeftLeg  35.7029 11.3761 7.02675
LeftFoot  -7.98567 -0.129137 -1.68836
LeftToes  -8.62603 1.31378e-006 1.14341e-007
368
root  -11.181 33.2797 23.6922 -167.889 -3.19435 177.474
RightUpLeg  -19.4307 -10.8592 -5.54491
RightLeg  60.8039 -7.64685 -11.7155
RightFoot  17.2828 0.691373 -3.93456
RightToes  -38.984 -0.210418 -0.309311
Spine  -0.417236 0.975876 -0.96532
Spine1  -0.859244 2.26187 -1.28839
HEad  -69.352 1.07342 5.85528
LeftShoulder1  -1.94126e-019 -3.10601e-018 -2.51263e-017
LeftArm  -20.5556 29.8603 -83.1761
LeftForeArm  33.4295 -6.42424 -1.11319
LeftHand  -0.495444 -1.43822 8.58703
RightShoulder  -4.96962e-017 0 -2.36833e-017
RightArm  -22.767 -16.9915 77.0346
RightForeArm  48.0426 27.0253 3.2826
RightHand  -0.332033 -1.75103 -10.4252
LeftUpLeg  -25.6048 1.84608 -6.20155
LeftLeg  32.8664 11.0048 6.08083
LeftFoot  -9.01342 -0.15494 -1.80402
LeftToes  -8.55413 1.31378e-006 1.14341e-007
369
root  -11.3897 33.5612 22.4876 -168.015 -3.11221 178.338
RightUpLeg  -25.2004 -11.0696 -3.55718
RightLeg  66.9649 -5.79692 -11.4751
RightFoot  14.0786 0.42936 -2.87174
RightToes  -30.0287 -0.144119 -0.252166
Spine  -0.453588 0.532946 -0.666134
Spine1  -0.91353 1.39163 -0.705375
HEad  -68.0708 2.30939 5.94604
LeftShoulder1  -1.94126e-019 -3.10601e-018 -2.51263e-017
LeftArm  -18.2466 30.2741 -83.14
LeftForeArm  33.3343 -6.7887 -1.17816
LeftHand  -0.48718 -1.54414 8.32559
RightShoulder  -4.96962e-017 0 -2.36833e-017
RightArm  -24.1186 -17.9599 77.572
RightForeArm  47.8655 28.0741 3.50701
RightHand  -0.35534 -1.62533 -10.8146
LeftUpLeg  -21.6217 2.08148 -5.46929
LeftLeg  29.1291 11.2933 5.31946
LeftFoot  -9.22853 -0.161537 -1.83973
LeftToes  -8.75363 1.31378e-006 1.14341e-007
370
root  -11.5603 33.8512 21.2295 -168.19 -3.12473 179.52
RightUpLeg  -29.9869 -11.0519 -0.992983
RightLeg  68.0274 -3.92741 -8.26066
RightFoot  12.6139 0.257944 -1.75028
RightToes  -31.4044 -0.15371 -0.261607
Spine  -0.555495 0.219788 -0.251329
Spine1  -1.10952 0.717514 0.131822
HEad  -66.6446 2.97987 5.84875
LeftShoulder1  -1.94126e-019 -3.10601e-018 -2.51263e-017
LeftArm  -16.7219 30.2767 -82.9747
LeftForeArm  34.4339 -7.3629 -1.27868
LeftHand  -0.50126 -1.79913 8.27671
RightShoulder  -4.96962e-017 0 -2.36833e-017
RightArm  -23.9596 -19.9006 77.4911
RightForeArm  47.7438 28.9957 3.70402
RightHand  -0.380286 -1.29029 -10.6752
LeftUpLeg  -17.1623 -0.543477 -4.27435
LeftLeg  24.858 14.1748 5.41566
LeftFoot  -8.89811 -0.185252 -2.21902
LeftToes  -8.33045 1.31378e-006 1.14341e-007
371
root  -11.7228 34.0582 19.9192 -168.225 -3.12914 -179.185
RightUpLeg  -33.9081 -10.7284 1.79442
RightLeg  65.4017 -3.76921 -7.08917
RightFoot  11.4119 0.195379 -1.37785
RightToes  -33.0119 -0.165202 -0.272345
Spine  -0.712405 -0.0187491 0.209177
Spine1  -1.42796 0.163862 1.07278
HEad  -65.2819 3.36899 5.75213
LeftShoulder1  -1.94126e-019 -3.10601e-018 -2.51263e-017
LeftArm  -15.3717 30.2284 -82.5965
LeftForeArm  34.1554 -8.55897 -1.49101
LeftHand  -0.516257 -1.94901 8.35585
RightShoulder  -4.96962e-017 0 -2.36833e-017
RightArm  -22.9345 -22.207 76.9046
RightForeArm  48.4047 29.3164 3.73559
RightHand  -0.412236 -0.692767 -10.1671
LeftUpLeg  -12.6412 -3.20291 -3.19558
LeftLeg  20.2426 17.3086 5.0531
LeftFoot  -8.67248 -0.21235 -2.63835
LeftToes  -6.85515 1.31378e-006 1.14341e-007
372
root  -11.9149 34.0919 18.6324 -168.01 -3.11385 -178.544
RightUpLeg  -37.4968 -9.93777 3.28339
RightLeg  60.3758 -3.70458 -5.70631
RightFoot  8.56205 0.104916 -0.83182
RightToes  -31.4736 -0.154199 -0.262076
Spine  -0.848958 -0.351941 0.512173
Spine1  -1.71861 -0.579657 1.70351
HEad  -64.4441 3.8764 5.53255
LeftShoulder1  -1.94126e-019 -3.10601e-018 -2.51263e-017
LeftArm  -14.1678 30.0957 -81.9191
LeftForeArm  31.9933 -10.5218 -1.8292
LeftHand  -0.494651 -1.78025 8.19008
RightShoulder  -4.96962e-017 0 -2.36833e-017
RightArm  -21.2801 -24.0114 76.0102
RightForeArm  49.4919 28.9133 3.59297
RightHand  -0.441286 0.038541 -9.48549
LeftUpLeg  -8.39939 -2.99494 -2.87333
LeftLeg  15.3249 17.6231 3.56762
LeftFoot  -8.56694 -0.207201 -2.60426
LeftToes  -6.33582 1.31378e-006 1.14341e-007
